<svg width="187" height="46" viewBox="0 0 187 46" fill="none" xmlns="http://www.w3.org/2000/svg">
<path d="M31.64 31.08C31.64 34.7067 32.4667 36.52 34.12 36.52C35.1867 36.52 36.08 35.7333 36.8 34.16C36.96 33.8933 37.2 33.8133 37.52 33.92C37.6533 33.9733 37.68 34.08 37.6 34.24C37.5467 34.4267 37.4533 34.64 37.32 34.88C37.1867 35.1467 36.9467 35.5467 36.6 36.08C35.8 37.2533 34.88 37.84 33.84 37.84C30.6133 37.84 29 35.28 29 30.16C29 24.4 31.04 15.4 35.12 3.16C35.2267 2.84 35.16 2.68 34.92 2.68C34.7067 2.68 34.4667 2.8 34.2 3.04C32.7867 4.37333 31.3333 6.16 29.84 8.4C28.3733 10.64 27.08 12.9067 25.96 15.2C23.9867 19.1733 22.5333 22.48 21.6 25.12C20.3467 28.8267 19.24 30.68 18.28 30.68C17.72 30.68 17.44 30.4 17.44 29.84C17.44 29.8133 17.4533 29.7867 17.48 29.76C20.8133 17.68 22.48 10.0933 22.48 7C22.48 5.61333 22.1733 4.92 21.56 4.92C20.3333 4.92 18.4 7.21333 15.76 11.8C13.12 16.36 11.1333 20.9333 9.8 25.52C8.2 31.04 6.78667 33.8 5.56 33.8C5 33.8 4.72 33.5067 4.72 32.92C4.74667 32.84 4.82667 32.6133 4.96 32.24C5.09333 31.8667 5.26667 31.32 5.48 30.6C5.69333 29.8533 6.02667 28.6933 6.48 27.12C6.96 25.52 7.36 23.9733 7.68 22.48C8.74667 17.52 9.28 13.9467 9.28 11.76C9.28 10.5867 9.2 9.42667 9.04 8.28C8.88 7.10667 8.48 6.16 7.84 5.44C7.2 4.72 6.36 4.36 5.32 4.36C3.69333 4.36 2.54667 5.04 1.88 6.4C1.66667 6.88 1.56 7.29333 1.56 7.64C1.56 7.96 1.65333 8.12 1.84 8.12C1.76 8.49333 1.44 8.68 0.88 8.68C0.32 8.68 0.04 8.32 0.04 7.6C0.04 6.50667 0.586667 5.53333 1.68 4.68C2.8 3.82667 4.06667 3.4 5.48 3.4C6.89333 3.4 8.01333 3.76 8.84 4.48C9.69333 5.17334 10.3067 6.10667 10.68 7.28C11.2933 9.22667 11.6 11.3333 11.6 13.6C11.6 14.4533 11.5467 15.3333 11.44 16.24H11.84C16.08 7.65333 19.64 3.36 22.52 3.36C24.1733 3.36 25 4.77333 25 7.6C25 8.96 24.6933 11.3467 24.08 14.76H24.44C29.32 5.56 33.32 0.960002 36.44 0.960002C37.64 0.960002 38.24 1.62667 38.24 2.96C37.4133 5.01333 36.4933 7.81333 35.48 11.36C32.92 20.1333 31.64 26.7067 31.64 31.08ZM39.8407 44.52C42.2407 44.52 44.1207 43.3867 45.4807 41.12C46.654 39.12 47.5607 36.6267 48.2007 33.64C43.374 33.7467 39.6674 35.5867 37.0807 39.16C36.9207 39.4 36.6674 39.44 36.3207 39.28C36.134 39.1733 36.0807 39.04 36.1607 38.88C37.3074 37.1467 38.9074 35.6667 40.9607 34.44C43.014 33.24 45.5074 32.5867 48.4407 32.48C48.734 31.1467 49.014 29.5867 49.2807 27.8C49.5474 26.0133 49.854 24.28 50.2007 22.6H49.8407C46.374 28.76 43.734 31.84 41.9207 31.84C39.894 31.84 38.8807 30.28 38.8807 27.16C38.8807 24.04 39.5474 20.9067 40.8807 17.76C42.214 14.5867 43.4274 12.88 44.5207 12.64L44.7607 12.6C45.214 12.6 45.4407 12.8933 45.4407 13.48C45.1474 14.2 44.774 15.1467 44.3207 16.32C43.8674 17.4667 43.2674 19.3733 42.5207 22.04C41.774 24.68 41.4007 26.7467 41.4007 28.24C41.4007 29.7067 41.7207 30.44 42.3607 30.44C43.1074 30.44 44.3074 29.1467 45.9607 26.56C48.3874 22.7733 50.494 18.9333 52.2807 15.04C53.054 13.4133 53.8807 12.6 54.7607 12.6C55.3207 12.6 55.6007 12.9067 55.6007 13.52C55.094 14.4533 54.4807 16.2 53.7607 18.76C53.0407 21.32 52.454 23.9067 52.0007 26.52C51.5474 29.1067 51.1607 31.1333 50.8407 32.6C52.8674 32.9467 54.0407 33.8267 54.3607 35.24C54.414 35.48 54.4407 35.8 54.4407 36.2C54.4407 36.6267 54.2807 36.9867 53.9607 37.28C53.6407 37.6 53.3607 37.76 53.1207 37.76C53.174 37.5733 53.1874 37.24 53.1607 36.76C53.134 36.3067 53.0407 35.92 52.8807 35.6C52.7474 35.28 52.4807 34.9467 52.0807 34.6C51.6807 34.2533 51.1607 34 50.5207 33.84C48.4674 41.5733 44.9074 45.44 39.8407 45.44C37.654 45.44 36.2007 44.6667 35.4807 43.12C35.454 43.04 35.4407 42.9733 35.4407 42.92C35.4407 42.76 35.5874 42.6533 35.8807 42.6C36.1474 42.5733 36.3474 42.6667 36.4807 42.88C36.9607 43.9733 38.0807 44.52 39.8407 44.52ZM88.9642 31.08C88.9642 34.7067 89.7909 36.52 91.4442 36.52C92.5109 36.52 93.4042 35.7333 94.1242 34.16C94.2842 33.8933 94.5242 33.8133 94.8442 33.92C94.9776 33.9733 95.0042 34.08 94.9242 34.24C94.8709 34.4267 94.7776 34.64 94.6442 34.88C94.5109 35.1467 94.2709 35.5467 93.9242 36.08C93.1242 37.2533 92.2042 37.84 91.1642 37.84C87.9376 37.84 86.3242 35.28 86.3242 30.16C86.3242 24.4 88.3642 15.4 92.4442 3.16C92.5509 2.84 92.4842 2.68 92.2442 2.68C92.0309 2.68 91.7909 2.8 91.5242 3.04C90.1109 4.37333 88.6576 6.16 87.1642 8.4C85.6976 10.64 84.4042 12.9067 83.2842 15.2C81.3109 19.1733 79.8576 22.48 78.9242 25.12C77.6709 28.8267 76.5642 30.68 75.6042 30.68C75.0442 30.68 74.7642 30.4 74.7642 29.84C74.7642 29.8133 74.7776 29.7867 74.8042 29.76C78.1376 17.68 79.8042 10.0933 79.8042 7C79.8042 5.61333 79.4976 4.92 78.8842 4.92C77.6576 4.92 75.7242 7.21333 73.0842 11.8C70.4442 16.36 68.4576 20.9333 67.1242 25.52C65.5242 31.04 64.1109 33.8 62.8842 33.8C62.3242 33.8 62.0442 33.5067 62.0442 32.92C62.0709 32.84 62.1509 32.6133 62.2842 32.24C62.4176 31.8667 62.5909 31.32 62.8042 30.6C63.0176 29.8533 63.3509 28.6933 63.8042 27.12C64.2842 25.52 64.6842 23.9733 65.0042 22.48C66.0709 17.52 66.6042 13.9467 66.6042 11.76C66.6042 10.5867 66.5242 9.42667 66.3642 8.28C66.2042 7.10667 65.8042 6.16 65.1642 5.44C64.5242 4.72 63.6842 4.36 62.6442 4.36C61.0176 4.36 59.8709 5.04 59.2042 6.4C58.9909 6.88 58.8842 7.29333 58.8842 7.64C58.8842 7.96 58.9776 8.12 59.1642 8.12C59.0842 8.49333 58.7642 8.68 58.2042 8.68C57.6442 8.68 57.3642 8.32 57.3642 7.6C57.3642 6.50667 57.9109 5.53333 59.0042 4.68C60.1242 3.82667 61.3909 3.4 62.8042 3.4C64.2176 3.4 65.3376 3.76 66.1642 4.48C67.0176 5.17334 67.6309 6.10667 68.0042 7.28C68.6176 9.22667 68.9242 11.3333 68.9242 13.6C68.9242 14.4533 68.8709 15.3333 68.7642 16.24H69.1642C73.4042 7.65333 76.9642 3.36 79.8442 3.36C81.4976 3.36 82.3242 4.77333 82.3242 7.6C82.3242 8.96 82.0176 11.3467 81.4042 14.76H81.7642C86.6442 5.56 90.6442 0.960002 93.7642 0.960002C94.9642 0.960002 95.5642 1.62667 95.5642 2.96C94.7376 5.01333 93.8176 7.81333 92.8042 11.36C90.2442 20.1333 88.9642 26.7067 88.9642 31.08ZM106.525 12.6C108.552 12.6 109.565 13.7867 109.565 16.16C109.565 17.52 109.112 18.9467 108.205 20.44C106.658 22.92 104.605 24.16 102.045 24.16C101.645 24.16 101.312 24.0933 101.045 23.96C100.778 23.8267 100.578 23.6267 100.445 23.36C102.338 23.36 104.072 22.2667 105.645 20.08C106.925 18.32 107.565 16.7067 107.565 15.24C107.565 14.1467 107.125 13.6 106.245 13.6C104.485 13.6 102.845 14.9733 101.325 17.72C99.6983 20.7067 98.8849 23.7733 98.8849 26.92C98.8849 29.5867 99.6449 31.1867 101.165 31.72C101.458 31.8267 101.832 31.88 102.285 31.88C102.738 31.88 103.218 31.7733 103.725 31.56C104.232 31.32 104.658 31.04 105.005 30.72C105.698 30.08 106.272 29.3733 106.725 28.6C106.832 28.3867 107.032 28.28 107.325 28.28C107.805 28.28 108.032 28.36 108.005 28.52C107.925 28.8133 107.618 29.3067 107.085 30C106.578 30.6933 106.098 31.2533 105.645 31.68C105.218 32.08 104.645 32.44 103.925 32.76C103.232 33.1067 102.525 33.28 101.805 33.28C98.9783 33.28 97.1783 31.9467 96.4049 29.28C96.1649 28.3733 96.0449 27.44 96.0449 26.48C96.0449 24.6933 96.4583 22.7467 97.2849 20.64C98.5916 17.44 100.392 15.1333 102.685 13.72C103.938 12.9733 105.218 12.6 106.525 12.6ZM121.421 27.12C121.421 23.84 122.021 19.6933 123.221 14.68C123.301 14.4133 123.221 14.2933 122.981 14.32C122.794 14.3467 122.621 14.4267 122.461 14.56C121.288 15.5467 119.994 17.3733 118.581 20.04C117.168 22.7067 116.034 25.1467 115.181 27.36C114.328 29.5467 113.901 30.8267 113.901 31.2C113.901 31.52 113.701 31.68 113.301 31.68C112.501 31.68 112.101 30.6267 112.101 28.52C112.101 24.52 112.501 20.92 113.301 17.72C114.101 14.4933 115.074 12.88 116.221 12.88C116.728 12.88 116.981 13.16 116.981 13.72C115.754 17.5867 114.874 21.56 114.341 25.64H114.701C118.221 16.84 121.461 12.44 124.421 12.44C125.701 12.44 126.341 13.0667 126.341 14.32C125.088 18.0533 124.181 21.7333 123.621 25.36H123.941C124.821 23.4933 125.701 21.8 126.581 20.28C127.488 18.7333 128.541 17.3067 129.741 16C130.941 14.6667 132.021 14 132.981 14C134.261 14 134.901 14.6133 134.901 15.84C133.514 20.4533 132.821 24.9467 132.821 29.32C132.821 32.1467 133.248 33.56 134.101 33.56C134.394 33.56 134.688 33.4267 134.981 33.16C135.274 32.92 135.474 32.8 135.581 32.8C135.954 32.8 135.941 33.0933 135.541 33.68C135.434 33.8667 135.194 34.12 134.821 34.44C134.474 34.76 134.128 34.92 133.781 34.92C132.741 34.92 131.928 34.1867 131.341 32.72C130.781 31.28 130.501 29.4 130.501 27.08C130.501 23 130.928 19.4133 131.781 16.32C131.834 16.1333 131.768 16.04 131.581 16.04C131.421 16.0667 131.261 16.1467 131.101 16.28C129.581 17.5867 127.888 20.0133 126.021 23.56C124.154 27.08 123.221 29.16 123.221 29.8C123.221 30.12 123.008 30.28 122.581 30.28C121.808 30.28 121.421 29.2267 121.421 27.12ZM143.152 32.36C139.872 32.36 138.232 30.1067 138.232 25.6C138.232 23.0667 138.872 20.5333 140.152 18C141.779 14.8 143.712 13.2 145.952 13.2C146.272 13.2 146.539 13.28 146.752 13.44C146.966 13.6 147.112 13.84 147.192 14.16C145.512 14.16 144.059 15.5067 142.832 18.2C141.606 20.8933 140.992 23.5467 140.992 26.16C140.992 29.3333 141.859 30.92 143.592 30.92C144.579 30.92 145.606 30.1733 146.672 28.68C147.739 27.16 148.619 25.1733 149.312 22.72C150.032 20.2667 150.392 17.8 150.392 15.32V14.84C149.566 14.3067 148.886 13.64 148.352 12.84C147.819 12.04 147.552 11.4533 147.552 11.08C147.552 10.7067 147.712 10.36 148.032 10.04C148.379 9.69333 148.726 9.52 149.072 9.52C149.579 9.52 150.072 9.97333 150.552 10.88C151.032 11.7867 151.366 12.8133 151.552 13.96C152.379 14.52 153.099 14.8 153.712 14.8C154.352 14.8 154.859 14.6933 155.232 14.48C155.232 14.8533 155.099 15.1867 154.832 15.48C154.566 15.7733 154.152 15.92 153.592 15.92C153.032 15.92 152.392 15.7867 151.672 15.52C151.646 18.08 151.259 20.6533 150.512 23.24C149.766 25.8267 148.726 28 147.392 29.76C146.059 31.4933 144.646 32.36 143.152 32.36ZM167.456 20.52C166.443 20.52 165.936 19.4133 165.936 17.2C165.936 15.9467 166.176 14.7733 166.656 13.68C164.843 15.2533 162.816 18.1867 160.576 22.48C158.336 26.7467 157.216 29.5333 157.216 30.84C157.216 31.16 157.003 31.32 156.576 31.32C155.803 31.32 155.416 30.2667 155.416 28.16C155.416 24.1867 155.816 20.5867 156.616 17.36C157.416 14.1333 158.39 12.52 159.536 12.52C160.043 12.52 160.296 12.8133 160.296 13.4C159.07 17.2933 158.19 21.28 157.656 25.36H157.936C160.096 20.3733 162.483 16.48 165.096 13.68C166.59 12.08 167.95 11.28 169.176 11.28C169.443 11.28 169.656 11.36 169.816 11.52C170.003 11.68 170.096 11.88 170.096 12.12C169.91 12.3067 169.683 12.5867 169.416 12.96C169.15 13.3333 168.79 14.2267 168.336 15.64C167.883 17.0267 167.656 18.5467 167.656 20.2C167.656 20.4133 167.59 20.52 167.456 20.52ZM171.188 44.52C173.588 44.52 175.468 43.3867 176.828 41.12C178.002 39.12 178.908 36.6267 179.548 33.64C174.722 33.7467 171.015 35.5867 168.428 39.16C168.268 39.4 168.015 39.44 167.668 39.28C167.482 39.1733 167.428 39.04 167.508 38.88C168.655 37.1467 170.255 35.6667 172.308 34.44C174.362 33.24 176.855 32.5867 179.788 32.48C180.082 31.1467 180.362 29.5867 180.628 27.8C180.895 26.0133 181.202 24.28 181.548 22.6H181.188C177.722 28.76 175.082 31.84 173.268 31.84C171.242 31.84 170.228 30.28 170.228 27.16C170.228 24.04 170.895 20.9067 172.228 17.76C173.562 14.5867 174.775 12.88 175.868 12.64L176.108 12.6C176.562 12.6 176.788 12.8933 176.788 13.48C176.495 14.2 176.122 15.1467 175.668 16.32C175.215 17.4667 174.615 19.3733 173.868 22.04C173.122 24.68 172.748 26.7467 172.748 28.24C172.748 29.7067 173.068 30.44 173.708 30.44C174.455 30.44 175.655 29.1467 177.308 26.56C179.735 22.7733 181.842 18.9333 183.628 15.04C184.402 13.4133 185.228 12.6 186.108 12.6C186.668 12.6 186.948 12.9067 186.948 13.52C186.442 14.4533 185.828 16.2 185.108 18.76C184.388 21.32 183.802 23.9067 183.348 26.52C182.895 29.1067 182.508 31.1333 182.188 32.6C184.215 32.9467 185.388 33.8267 185.708 35.24C185.762 35.48 185.788 35.8 185.788 36.2C185.788 36.6267 185.628 36.9867 185.308 37.28C184.988 37.6 184.708 37.76 184.468 37.76C184.522 37.5733 184.535 37.24 184.508 36.76C184.482 36.3067 184.388 35.92 184.228 35.6C184.095 35.28 183.828 34.9467 183.428 34.6C183.028 34.2533 182.508 34 181.868 33.84C179.815 41.5733 176.255 45.44 171.188 45.44C169.002 45.44 167.548 44.6667 166.828 43.12C166.802 43.04 166.788 42.9733 166.788 42.92C166.788 42.76 166.935 42.6533 167.228 42.6C167.495 42.5733 167.695 42.6667 167.828 42.88C168.308 43.9733 169.428 44.52 171.188 44.52Z" fill="black"/>
</svg>
